<svg width="24" height="25" viewBox="0 0 24 25" fill="none" xmlns="http://www.w3.org/2000/svg">
<path d="M4.00048 14.4997C3.81125 14.5003 3.62571 14.4473 3.46543 14.3467C3.30516 14.246 3.17671 14.102 3.09503 13.9313C3.01335 13.7606 2.98177 13.5703 3.00398 13.3823C3.02619 13.1944 3.10126 13.0166 3.22048 12.8697L13.1205 2.66967C13.1947 2.58396 13.2959 2.52603 13.4075 2.50541C13.519 2.48478 13.6342 2.50269 13.7342 2.55618C13.8342 2.60967 13.9131 2.69557 13.9578 2.79978C14.0026 2.90399 14.0106 3.02032 13.9805 3.12967L12.0605 9.14967C12.0039 9.3012 11.9849 9.46419 12.0051 9.62468C12.0253 9.78517 12.0841 9.93836 12.1766 10.0711C12.269 10.2038 12.3923 10.3122 12.5358 10.3868C12.6793 10.4615 12.8387 10.5002 13.0005 10.4997H20.0005C20.1897 10.499 20.3752 10.5521 20.5355 10.6527C20.6958 10.7533 20.8242 10.8973 20.9059 11.068C20.9876 11.2387 21.0192 11.4291 20.997 11.617C20.9748 11.8049 20.8997 11.9827 20.7805 12.1297L10.8805 22.3297C10.8062 22.4154 10.705 22.4733 10.5935 22.4939C10.482 22.5146 10.3668 22.4967 10.2668 22.4432C10.1667 22.3897 10.0879 22.3038 10.0431 22.1996C9.9984 22.0954 9.9904 21.979 10.0205 21.8697L11.9405 15.8497C11.9971 15.6982 12.0161 15.5352 11.9959 15.3747C11.9757 15.2142 11.9168 15.061 11.8244 14.9282C11.732 14.7955 11.6087 14.6872 11.4652 14.6125C11.3217 14.5379 11.1622 14.4991 11.0005 14.4997H4.00048Z" stroke="#2563EB" stroke-width="2" stroke-linecap="round" stroke-linejoin="round"/>
</svg>
