<svg width="19" height="19" viewBox="0 0 19 19" fill="none" xmlns="http://www.w3.org/2000/svg">
<path d="M9.46875 10.25C9.88296 10.25 10.2188 9.91421 10.2188 9.5C10.2188 9.08579 9.88296 8.75 9.46875 8.75C9.05454 8.75 8.71875 9.08579 8.71875 9.5C8.71875 9.91421 9.05454 10.25 9.46875 10.25Z" stroke="#9CA3AF" strokeWidth="2" strokeLinecap="round" strokeLinejoin="round"/>
<path d="M14.7188 10.25C15.133 10.25 15.4688 9.91421 15.4688 9.5C15.4688 9.08579 15.133 8.75 14.7188 8.75C14.3045 8.75 13.9688 9.08579 13.9688 9.5C13.9688 9.91421 14.3045 10.25 14.7188 10.25Z" stroke="#9CA3AF" strokeWidth="2" strokeLinecap="round" strokeLinejoin="round"/>
<path d="M4.21875 10.25C4.63296 10.25 4.96875 9.91421 4.96875 9.5C4.96875 9.08579 4.63296 8.75 4.21875 8.75C3.80454 8.75 3.46875 9.08579 3.46875 9.5C3.46875 9.91421 3.80454 10.25 4.21875 10.25Z" stroke="#9CA3AF" strokeWidth="2" strokeLinecap="round" strokeLinejoin="round"/>
</svg>
